<svg xmlns="http://www.w3.org/2000/svg" xmlns:xlink="http://www.w3.org/1999/xlink" width="125" class="site-logo" version="1.1" viewBox="0 0 506 150"><g fill="none" fill-rule="evenodd" stroke="none" stroke-width="1"><g id="Angular Logo"><g transform="translate(7.000000, 5.000000)"><path id="Fill-1" fill="#FFF" d="M63.5346,0.0002 L-0.0004,22.6812 L9.6596,106.8882 L63.5346,136.7842 L118.3786,106.4852 L128.8876,22.2792 L63.5346,0.0002 Z M63.5346,15.2512 L105.1226,103.7832 L91.3386,103.7832 L82.5836,83.7842 L63.5346,83.7842 L46.8446,83.7842 L38.8496,103.7362 L23.8346,103.9872 L63.5346,15.2512 Z"/><polygon id="Fill-2" fill="#FFF" points="52.092 71.784 63.534 71.784 77.444 71.784 63.534 43.696"/><path id="Fill-3" fill="#FFF" d="M63.5346,0.0002 L-0.0004,22.6812 L9.6596,106.8882 L63.5346,136.7842 L118.3786,106.4852 L128.8876,22.2792 L63.5346,0.0002 Z M63.5346,15.2512 L105.1226,103.7832 L91.3386,103.7832 L82.5836,83.7842 L63.5346,83.7842 L46.8446,83.7842 L38.8496,103.7362 L23.8346,103.9872 L63.5346,15.2512 Z"/><polygon id="Fill-4" fill="#FFF" points="52.092 71.784 63.534 71.784 77.444 71.784 63.534 43.696"/><polygon id="Fill-5" fill="#F2F2F2" points="63.534 43.696 63.534 71.784 77.444 71.784"/><polygon id="Fill-6" fill="#F2F2F2" points="63.535 0 63.535 15.251 105.123 103.783 91.339 103.783 82.584 83.784 63.535 83.784 63.535 136.784 118.379 106.485 128.888 22.279"/><polygon id="Fill-7" fill="#FFF" points="52.092 71.784 63.534 71.784 63.534 43.696"/><polygon id="Fill-8" fill="#FFF" points="63.535 0 0 22.681 9.66 106.888 63.535 136.784 63.535 83.784 46.845 83.784 38.85 103.736 23.835 103.987 63.535 15.251"/><g id="Group-21" transform="translate(151.000000, 41.784000)"><path id="Fill-9" fill="#CBCBCB"/><path id="Fill-11" fill="#FFF"/><path id="Fill-13" fill="#FFF"/><path id="Fill-15" fill="#FFF"/><path id="Fill-17" fill="#FFF"/><path id="Fill-19" fill="#FFF"/></g><polygon id="Fill-22" fill="#FFF" points="147.678 101.321 147.678 39.787 155.637 39.787 193.289 89.356 193.289 39.787 200.82 39.787 200.82 101.321 192.861 101.321 155.206 51.316 155.206 101.321"/><g id="Group-33" fill="#FFF" transform="translate(212.000000, 30.784000)"><path id="Fill-23" d="M49.9213,68.1254 C44.9603,70.0214 39.6103,70.9664 33.8713,70.9664 C11.5843,70.9664 0.4373,60.2814 0.4373,38.9074 C0.4373,18.6834 11.1953,8.5694 32.7113,8.5694 C38.8783,8.5694 44.6173,9.4324 49.9213,11.1554 L49.9213,18.0394 C44.6173,16.0314 39.1633,15.0264 33.5703,15.0264 C16.7923,15.0264 8.4003,22.9884 8.4003,38.9074 C8.4003,55.9754 16.6613,64.5144 33.1853,64.5144 C35.8213,64.5144 38.7513,64.1704 41.9653,63.4774 L41.9653,42.5654 L49.9213,42.5654 L49.9213,68.1254 Z"/><path id="Fill-25" d="M62.6159,46.7822 L62.6159,9.0002 L70.5719,9.0002 L70.5719,46.7822 C70.5719,58.6002 76.4529,64.5122 88.2169,64.5122 C99.9769,64.5122 105.8599,58.6002 105.8599,46.7822 L105.8599,9.0002 L113.8199,9.0002 L113.8199,46.7822 C113.8199,62.9092 105.2849,70.9652 88.2169,70.9652 C71.1499,70.9652 62.6159,62.9092 62.6159,46.7822"/><polygon id="Fill-27" points="135.98 8.999 135.98 64.081 168.169 64.081 168.169 70.534 128.024 70.534 128.024 8.999"/><polygon id="Fill-29" points="179.658 70.536 171.398 70.536 201.992 .881 232.583 70.536 223.762 70.536 215.802 51.17 195.45 51.17 197.646 44.718 213.134 44.718 201.647 16.831"/><path id="Fill-31" d="M240.9755,70.5366 L240.9755,9.0026 L267.2255,9.0026 C278.9305,9.0026 284.7785,13.9216 284.7785,23.7616 C284.7785,31.7636 279.0615,37.6926 267.6135,41.5316 L288.7405,70.5366 L278.2365,70.5366 L258.6635,42.8686 L258.6635,37.6616 C270.4235,35.7916 276.3065,31.2786 276.3065,24.1046 C276.3065,18.4276 273.0335,15.5866 266.4915,15.5866 L248.9345,15.5866 L248.9345,70.5366 L240.9755,70.5366 Z"/></g></g></g></g></svg>